<svg xmlns="http://www.w3.org/2000/svg" xmlns:xlink="http://www.w3.org/1999/xlink" width="97" height="45" viewBox="0 0 97 45">
    <defs>
        <path id="a" d="M0 .5h97v44H0z"/>
    </defs>
    <g fill="none" fill-rule="evenodd">
        <mask id="b" fill="#fff">
            <use xlink:href="#a"/>
        </mask>
        <path fill="#698B41" fill-rule="nonzero" d="M97 44.119v-8.122c0-2.58-1.536-4.175-4.095-4.175-1.67 0-2.87.764-3.672 2.042h-.067c.024-.695.045-1.616.045-1.951v-4.489h-2.827V44.12h2.827v-7.023c0-1.706 1.112-2.918 2.693-2.918 1.447 0 2.269.877 2.269 2.29v7.65H97zm-21.007-5.97c0-2.422 1.069-4.15 3.139-4.15 1.423 0 2.314.832 2.58 2.131h2.76c-.424-2.58-2.338-4.308-5.364-4.308-3.649 0-5.985 2.76-5.985 6.327 0 3.546 2.358 6.328 6.03 6.328 3.182 0 5.206-1.929 5.386-4.712h-2.76c-.156 1.57-1.09 2.49-2.647 2.49-2.07 0-3.139-1.748-3.139-4.106zm5.564-30.446h.088V5.145c-.201-.09-.424-.112-.757-.112-1.514 0-2.647.786-3.404 2.332h-.067V5.213H74.68v11.98h2.825v-6.012c0-2.311 1.401-3.591 3.272-3.567.288 0 .51.022.779.09zM72.9 34.627h.09V32.07c-.202-.09-.425-.111-.758-.111-1.514 0-2.647.785-3.404 2.334h-.067v-2.155h-2.736v11.982h2.824v-6.013c0-2.312 1.402-3.59 3.273-3.568.288 0 .51.022.778.09zm-9.08-22.706h8.88c.021-2.22-.535-4.107-1.692-5.34-1.002-1.076-2.36-1.683-4.094-1.683-3.517 0-5.897 2.76-5.897 6.327 0 3.546 2.27 6.33 6.052 6.33 2.916 0 4.83-1.595 5.408-3.75h-2.76c-.379.988-1.268 1.572-2.626 1.572-1.98 0-3.069-1.391-3.27-3.456zm.044-1.795c.246-1.884 1.202-3.164 3.05-3.164 1.712 0 2.759 1.19 2.87 3.164h-5.92zm-7.676-6.865h2.892V.502h-2.892v2.759zm.045 13.933h2.828V5.212h-2.828v11.982zm2.315 14.629c-3.383 0-4.986 1.862-5.075 3.904h2.671c.066-1.189.846-1.93 2.426-1.93 1.423 0 2.136.696 2.136 1.729 0 1.075-.98 1.392-2.937 1.638-2.827.335-4.875.985-4.875 3.7 0 2.334 1.737 3.547 4.05 3.547 1.891 0 2.96-.785 3.738-1.84h.046c.045.806.2 1.277.4 1.548h2.738v-.203c-.268-.18-.446-.696-.446-1.682V35.93c0-1.593-.58-2.736-1.691-3.41-.779-.493-1.825-.696-3.181-.696zm2.225 6.17v1.772c0 1.346-1.068 2.694-3.004 2.694-1.09 0-2.048-.382-2.048-1.662 0-1.324 1-1.682 2.738-2.02.867-.178 1.756-.424 2.314-.784zM51.871 7.164h2.38V5.213h-2.38V1.398h-2.782v3.815h-1.823v1.951h1.823v7.337c0 2.11 1.313 2.804 3.227 2.804.757 0 1.402-.09 1.87-.178v-2.223h-.133a5.38 5.38 0 0 1-.913.091c-.802 0-1.27-.248-1.27-1.122V7.164zm-8.99 10.03h2.825V9.07c0-2.58-1.533-4.172-4.094-4.172-1.667 0-2.913.74-3.695 2.064h-.064v-1.75h-2.76v11.982h2.824v-7.022c0-1.706 1.115-2.918 2.694-2.918 1.447 0 2.27.874 2.27 2.29v7.65zm-9.769-5.97c0-3.567-2.336-6.326-6.03-6.326-3.695 0-6.076 2.76-6.076 6.327 0 3.546 2.381 6.33 6.075 6.33 3.695 0 6.031-2.784 6.031-6.33zm-2.87 0c0 2.402-1.112 4.175-3.182 4.175-2.091 0-3.182-1.773-3.182-4.174 0-2.423 1.09-4.218 3.182-4.218 2.07 0 3.181 1.796 3.181 4.218zm-5.474 22.283c-1.002-1.078-2.358-1.685-4.095-1.685-3.515 0-5.896 2.76-5.896 6.327 0 3.546 2.27 6.328 6.052 6.328 2.916 0 4.83-1.594 5.407-3.748h-2.758c-.378.988-1.27 1.572-2.625 1.572-1.982 0-3.072-1.391-3.273-3.456h8.88c.023-2.22-.536-4.107-1.692-5.338zm-1.225 3.543h-5.917c.244-1.884 1.2-3.162 3.047-3.162 1.713 0 2.76 1.189 2.87 3.162zM20.004 7.703h.091V5.145c-.2-.09-.424-.112-.756-.112-1.515 0-2.648.786-3.405 2.332h-.067V5.213h-2.738v11.98h2.827v-6.012c0-2.311 1.401-3.591 3.27-3.567.29 0 .513.022.778.09zM3.072 3.172h8.68V.5H0v16.694h3.072v-7.157h7.232v-2.58H3.072V3.171zM7.81 27.424H0V44.12h3.072v-6.641H6.61c1.981 0 2.892.85 3.071 2.826.178 2.244.178 3.544.601 3.815h3.115v-.157c-.446-.225-.467-1.593-.736-4.04-.177-2.064-.821-3.072-2.58-3.61v-.068c2.159-.696 3.048-2.133 3.048-4.13 0-2.917-2.224-4.69-5.319-4.69zm-.623 2.536c1.981 0 2.849.943 2.849 2.602 0 1.549-1.023 2.536-2.96 2.536H3.073V29.96h4.115zm23.21 10.48h-2.714c.177 2.423 2.137 4.06 5.52 4.06 2.937 0 5.072-1.324 5.072-3.836 0-2.918-2.223-3.457-4.473-3.881-1.802-.34-3.026-.54-3.026-1.595 0-.831.69-1.435 2.003-1.435 1.401 0 2.159.56 2.36 1.592h2.692c-.29-2.085-1.87-3.523-5.03-3.523-2.782 0-4.696 1.302-4.696 3.568 0 2.716 2.116 3.23 4.34 3.68 1.87.36 3.072.584 3.072 1.773 0 .964-.735 1.638-2.293 1.638-1.514 0-2.604-.607-2.826-2.042zm9.368-2.29c0 3.545 2.271 6.328 6.054 6.328 2.915 0 4.827-1.595 5.407-3.748h-2.76c-.378.987-1.267 1.572-2.625 1.572-1.98 0-3.072-1.392-3.271-3.457h8.88c.021-2.22-.535-4.107-1.692-5.338-1.001-1.078-2.36-1.685-4.094-1.685-3.518 0-5.899 2.76-5.899 6.327zm2.849-1.1c.246-1.884 1.202-3.162 3.05-3.162 1.712 0 2.759 1.188 2.87 3.162h-5.92z" mask="url(#b)"/>
    </g>
</svg>
