<svg xmlns="http://www.w3.org/2000/svg" width="295" height="213" viewBox="0 0 295 213">
    <g fill="none" fill-rule="evenodd">
        <path fill="#FFF" d="M-12 0h1500v3828H-12z"/>
        <g fill="#558D38">
            <path d="M109.94 92.207c-5.484-7.58-8.73-16.883-8.73-26.933 0-25.4 20.664-46.063 46.063-46.063 10.05 0 19.352 3.245 26.933 8.73l.868-.868C167.264 21.374 157.658 18 147.273 18 121.206 18 100 39.207 100 65.274c0 10.385 3.374 19.992 9.072 27.8l.868-.867zM184.606 38.34c5.484 7.58 8.73 16.883 8.73 26.934 0 25.4-20.665 46.062-46.063 46.062-10.051 0-19.354-3.245-26.935-8.73l-.867.868c7.809 5.698 17.417 9.072 27.802 9.072 26.066 0 47.273-21.206 47.273-47.272 0-10.385-3.374-19.993-9.073-27.802l-.867.868z"/>
            <path d="M144.891 74.504c.158-1.195.77-2.006 1.951-2.006 1.096 0 1.766.754 1.836 2.006h-3.787zm-1.822.698c0 2.25 1.453 4.015 3.873 4.015 1.865 0 3.087-1.011 3.459-2.378h-1.766c-.242.626-.81.997-1.68.997-1.266 0-1.964-.883-2.091-2.193h5.679c.014-1.408-.342-2.605-1.082-3.387-.64-.683-1.51-1.068-2.619-1.068-2.25 0-3.773 1.75-3.773 4.014zm-5.992 1.452h-1.737c.114 1.537 1.367 2.577 3.531 2.577 1.88 0 3.245-.84 3.245-2.434 0-1.851-1.423-2.193-2.862-2.463-1.152-.214-1.935-.342-1.935-1.011 0-.527.441-.91 1.281-.91.897 0 1.381.355 1.51 1.01h1.722c-.185-1.323-1.197-2.235-3.218-2.235-1.78 0-3.003.826-3.003 2.264 0 1.722 1.352 2.048 2.776 2.333 1.196.229 1.965.371 1.965 1.126 0 .611-.47 1.038-1.467 1.038-.968 0-1.666-.384-1.808-1.295zm-14.847-6.648c1.267 0 1.822.598 1.822 1.65 0 .983-.654 1.61-1.893 1.61h-2.562v-3.26h2.633zm.398-1.608h-4.995v10.59h1.964v-4.213h2.263c1.268 0 1.85.54 1.965 1.794.113 1.424.113 2.248.385 2.42h1.992v-.1c-.285-.143-.299-1.01-.47-2.562-.114-1.31-.526-1.95-1.65-2.292v-.043c1.38-.44 1.948-1.353 1.948-2.619 0-1.85-1.422-2.975-3.402-2.975zm-3.031-15.387h5.552v-1.695h-7.516v10.591h1.964v-4.54h4.626v-1.638h-4.626v-2.718zm10.832 2.875h.058v-1.623c-.129-.057-.271-.07-.484-.07-.969 0-1.694.497-2.178 1.478h-.043v-1.365h-1.752v7.601h1.809v-3.815c0-1.466.896-2.278 2.092-2.263.185 0 .328.014.498.057zm2.263 18.618h-3.785c.156-1.195.768-2.006 1.95-2.006 1.095 0 1.765.754 1.835 2.006zm.783-2.248c-.64-.683-1.508-1.068-2.619-1.068-2.248 0-3.771 1.75-3.771 4.014 0 2.25 1.45 4.015 3.871 4.015 1.865 0 3.09-1.011 3.46-2.378h-1.765c-.242.626-.812.997-1.68.997-1.267 0-1.965-.883-2.093-2.193h5.68c.015-1.408-.343-2.605-1.083-3.387zm3.503-14.136c0 1.524-.712 2.648-2.036 2.648-1.338 0-2.035-1.124-2.035-2.648 0-1.537.697-2.676 2.035-2.676 1.324 0 2.036 1.14 2.036 2.676zm1.835 0c0-2.263-1.494-4.013-3.857-4.013-2.363 0-3.886 1.75-3.886 4.013 0 2.25 1.523 4.015 3.886 4.015 2.363 0 3.857-1.765 3.857-4.015zm6.25 3.787h1.807v-5.154c0-1.636-.981-2.646-2.62-2.646-1.066 0-1.863.468-2.362 1.308h-.042v-1.11h-1.765v7.602h1.807v-4.455c0-1.082.712-1.851 1.722-1.851.925 0 1.453.554 1.453 1.453v4.853zm5.75-6.363h1.523v-1.238h-1.523v-2.42h-1.78v2.42h-1.166v1.238h1.167v4.654c0 1.339.84 1.78 2.064 1.78.484 0 .897-.057 1.196-.114v-1.41h-.085c-.142.03-.4.059-.584.059-.514 0-.812-.159-.812-.713v-4.256zm5.694 19.558v1.125c0 .854-.683 1.709-1.921 1.709-.697 0-1.31-.242-1.31-1.055 0-.84.64-1.066 1.75-1.28.556-.114 1.124-.27 1.481-.5zm-1.423-3.914c-2.164 0-3.189 1.182-3.246 2.477h1.709c.041-.755.54-1.225 1.55-1.225.911 0 1.368.442 1.368 1.097 0 .682-.627.883-1.88 1.04-1.808.212-3.118.625-3.118 2.347 0 1.48 1.112 2.25 2.591 2.25 1.21 0 1.893-.498 2.391-1.168h.03c.028.512.128.811.255.982h1.752v-.128c-.172-.114-.285-.442-.285-1.067v-4c0-1.011-.37-1.736-1.082-2.164-.498-.313-1.168-.44-2.035-.44zm-1.48-9.281h1.808v-7.601h-1.808v7.601zm-.03-8.84h1.85v-1.75h-1.85v1.75zm4.91 4.356c.159-1.196.77-2.008 1.951-2.008 1.096 0 1.766.756 1.837 2.008h-3.788zm-.027 1.139h5.68c.013-1.409-.342-2.606-1.082-3.389-.641-.682-1.51-1.066-2.62-1.066-2.249 0-3.77 1.75-3.77 4.013 0 2.25 1.45 4.015 3.87 4.015 1.865 0 3.09-1.011 3.459-2.378h-1.766c-.241.627-.81.998-1.679.998-1.266 0-1.963-.883-2.092-2.193zm5.808 14.405h.057v-1.623c-.129-.056-.271-.07-.484-.07-.969 0-1.694.498-2.178 1.48h-.043v-1.367h-1.75v7.601h1.807v-3.814c0-1.467.896-2.278 2.093-2.264.184 0 .326.014.498.057zm5.537-17.081h.057v-1.623c-.129-.057-.271-.07-.485-.07-.968 0-1.693.497-2.177 1.478h-.043v-1.365h-1.75v7.601h1.806v-3.815c0-1.466.898-2.278 2.094-2.263.184 0 .327.014.498.057zm-3.558 19.316c0-1.537.683-2.633 2.007-2.633.91 0 1.48.527 1.65 1.351h1.766c-.27-1.636-1.496-2.732-3.431-2.732-2.334 0-3.828 1.75-3.828 4.014 0 2.25 1.508 4.015 3.857 4.015 2.035 0 3.33-1.224 3.445-2.99h-1.766c-.099.996-.696 1.58-1.693 1.58-1.324 0-2.007-1.11-2.007-2.605zm13.437 3.786v-5.152c0-1.637-.983-2.648-2.62-2.648-1.067 0-1.835.484-2.349 1.295h-.042c.015-.442.029-1.025.029-1.238v-2.847h-1.809v10.59h1.809v-4.454c0-1.082.71-1.852 1.722-1.852.926 0 1.452.556 1.452 1.453v4.853h1.808z"/>
        </g>
    </g>
</svg>
