<svg xmlns="http://www.w3.org/2000/svg" width="45" height="46" viewBox="0 0 45 46">
    <g fill="none" fill-rule="nonzero">
        <path stroke="#DDDFD1" d="M.5.5h43.342v45H.5z"/>
        <g fill="#011700">
            <path d="M25.907 25.697l1.966 1.988c.362.36.552.79.552 1.237 0 .443-.187.876-.541 1.247a14.11 14.11 0 0 1-.466.466c-.225.22-.44.425-.627.653-.003.007-.01.01-.014.018-.544.595-1.24.894-2.067.894-.071 0-.15-.004-.225-.007-1.229-.08-2.328-.545-3.152-.938a16.875 16.875 0 0 1-5.613-4.425c-1.293-1.566-2.16-3.026-2.74-4.602-.236-.642-.544-1.623-.458-2.676a2.647 2.647 0 0 1 .777-1.678l1.218-1.237.007-.007c.358-.346.78-.53 1.218-.53.437 0 .852.184 1.2.53.232.217.458.447.673.671.107.115.222.23.333.343l.978.984c.752.758.752 1.739 0 2.496-.1.101-.2.206-.301.307-.265.27-.537.551-.831.822.218.487.52.966.967 1.536.924 1.144 1.888 2.027 2.948 2.705.104.065.225.127.355.192.09.046.182.093.275.144l1.132-1.136c.362-.365.784-.556 1.225-.556.444 0 .863.195 1.21.56zM22.045 19.478a5.03 5.03 0 0 1 2.747 1.442 5.152 5.152 0 0 1 1.426 2.779c.043.266.27.451.529.451.032 0 .06-.004.092-.008a.543.543 0 0 0 .441-.628 6.234 6.234 0 0 0-1.723-3.363 6.116 6.116 0 0 0-3.325-1.744.54.54 0 0 0-.62.443c-.053.294.139.58.433.628zM29.554 22.44a9.133 9.133 0 0 0-2.525-4.927 8.955 8.955 0 0 0-4.87-2.556.477.477 0 0 0-.55.395.486.486 0 0 0 .393.559 8.017 8.017 0 0 1 4.354 2.283 8.151 8.151 0 0 1 2.256 4.405.477.477 0 0 0 .471.401.474.474 0 0 0 .471-.56z"/>
        </g>
    </g>
</svg>
