<?xml version="1.0" encoding="utf-8"?>
<!-- Generator: Adobe Illustrator 22.1.0, SVG Export Plug-In . SVG Version: 6.00 Build 0)  -->
<svg version="1.1" id="Layer_1" xmlns="http://www.w3.org/2000/svg" xmlns:xlink="http://www.w3.org/1999/xlink" x="0px" y="0px"
	 viewBox="0 0 20 20" style="enable-background:new 0 0 20 20;" xml:space="preserve">
<style type="text/css">
	.st0{fill:#558D38;}
	.st1{fill:none;stroke:#558D38;}
</style>
<path class="st0" d="M8.6,6.4L8.2,6.8c-0.1,0.1-0.1,0.3,0,0.4c0,0,0,0,0,0l3.1,3.3l-3.1,3.3c-0.1,0.1-0.1,0.3,0,0.4l0.4,0.4
	c0.1,0.1,0.1,0.1,0.2,0.1c0.1,0,0.1,0,0.2-0.1l3.7-3.9c0.1-0.1,0.1-0.3,0-0.4c0,0,0,0,0,0L9,6.4c0-0.1-0.1-0.1-0.2-0.1
	C8.7,6.3,8.7,6.3,8.6,6.4z"/>
<ellipse class="st1" cx="10" cy="10" rx="9.3" ry="9.3"/>
</svg>
