<svg xmlns="http://www.w3.org/2000/svg" width="225" height="225" viewBox="0 0 225 225">
    <g fill="#FFF" fill-rule="evenodd">
        <path d="M0 0h375v4256H0z"/>
        <path d="M37.254 103.55c-5.657-7.82-9.005-17.415-9.005-27.783 0-26.201 21.316-47.518 47.517-47.518 10.368 0 19.963 3.348 27.784 9.005l.895-.895C96.389 30.481 86.479 27 75.765 27 48.877 27 27 48.878 27 75.768c0 10.713 3.48 20.623 9.358 28.679l.896-.896zM114.277 47.982c5.658 7.82 9.006 17.417 9.006 27.785 0 26.201-21.317 47.517-47.518 47.517-10.368 0-19.964-3.348-27.784-9.006l-.895.895c8.055 5.878 17.966 9.359 28.68 9.359 26.889 0 48.766-21.876 48.766-48.765 0-10.713-3.48-20.624-9.36-28.68l-.895.895z"/>
        <path d="M73.309 85.289c.162-1.234.794-2.07 2.012-2.07 1.13 0 1.822.778 1.894 2.07h-3.906zm-1.88.72c0 2.32 1.499 4.14 3.995 4.14 1.924 0 3.185-1.042 3.568-2.452h-1.821c-.25.646-.837 1.028-1.732 1.028-1.307 0-2.028-.91-2.158-2.262h5.858c.014-1.453-.353-2.687-1.116-3.493-.66-.705-1.557-1.102-2.702-1.102-2.32 0-3.892 1.805-3.892 4.14zm-6.181 1.498h-1.792c.117 1.585 1.41 2.657 3.643 2.657 1.938 0 3.347-.866 3.347-2.51 0-1.91-1.468-2.263-2.952-2.54-1.189-.222-1.996-.353-1.996-1.044 0-.544.455-.94 1.321-.94.925 0 1.425.368 1.557 1.043h1.777c-.191-1.365-1.234-2.305-3.32-2.305-1.835 0-3.098.852-3.098 2.335 0 1.776 1.396 2.113 2.864 2.407 1.234.236 2.027.383 2.027 1.16 0 .632-.486 1.072-1.513 1.072-.999 0-1.719-.396-1.865-1.335zm-15.316-6.859c1.307 0 1.88.617 1.88 1.703 0 1.014-.676 1.66-1.953 1.66h-2.643v-3.363h2.716zm.41-1.659H45.19v10.925h2.027v-4.346h2.335c1.307 0 1.908.557 2.027 1.85.116 1.47.116 2.32.396 2.496h2.056v-.102c-.294-.148-.309-1.042-.486-2.644-.117-1.351-.542-2.01-1.702-2.363v-.044c1.424-.456 2.01-1.396 2.01-2.702 0-1.91-1.467-3.07-3.51-3.07zm-3.126-15.873h5.727v-1.748H45.19v10.925h2.027V67.61h4.772v-1.688h-4.772v-2.805zm11.174 2.966h.06v-1.674c-.133-.058-.28-.073-.5-.073-.999 0-1.747.514-2.246 1.526h-.044v-1.409h-1.808v7.841h1.866v-3.935c0-1.512.925-2.35 2.158-2.335.192 0 .338.015.514.059zm2.335 19.207H56.82c.161-1.234.792-2.07 2.01-2.07 1.131 0 1.822.778 1.895 2.07zm.807-2.32c-.66-.704-1.555-1.101-2.702-1.101-2.319 0-3.89 1.805-3.89 4.14 0 2.32 1.497 4.142 3.994 4.142 1.924 0 3.186-1.043 3.568-2.453h-1.82c-.25.646-.838 1.028-1.732 1.028-1.308 0-2.028-.91-2.16-2.262h5.859c.015-1.453-.353-2.687-1.117-3.493zm3.613-14.582c0 1.572-.734 2.732-2.1 2.732-1.38 0-2.1-1.16-2.1-2.732 0-1.585.72-2.76 2.1-2.76 1.366 0 2.1 1.175 2.1 2.76zm1.894 0c0-2.335-1.541-4.14-3.98-4.14-2.437 0-4.008 1.805-4.008 4.14 0 2.32 1.571 4.142 4.009 4.142 2.438 0 3.979-1.821 3.979-4.142zm6.447 3.906h1.864v-5.316c0-1.688-1.012-2.73-2.702-2.73-1.1 0-1.923.483-2.438 1.35h-.042v-1.145h-1.822v7.841h1.864v-4.595c0-1.116.735-1.91 1.777-1.91.955 0 1.499.572 1.499 1.499v5.006zm5.932-6.564h1.571v-1.277h-1.571v-2.496h-1.836v2.496h-1.203v1.277h1.203v4.802c0 1.38.866 1.836 2.13 1.836.499 0 .924-.059 1.233-.118v-1.454h-.088c-.146.03-.412.06-.602.06-.53 0-.837-.163-.837-.735v-4.39zm5.874 20.176v1.16c0 .882-.705 1.764-1.983 1.764-.718 0-1.351-.25-1.351-1.088 0-.867.66-1.1 1.807-1.322.572-.117 1.158-.278 1.527-.514zm-1.469-4.037c-2.232 0-3.29 1.219-3.348 2.554h1.763c.043-.778.558-1.263 1.6-1.263.939 0 1.41.456 1.41 1.132 0 .704-.647.91-1.939 1.072-1.865.22-3.216.645-3.216 2.422 0 1.527 1.146 2.32 2.672 2.32 1.248 0 1.953-.513 2.467-1.204h.03c.03.528.133.836.264 1.013h1.807v-.132c-.177-.118-.294-.456-.294-1.1v-4.127c0-1.043-.382-1.791-1.116-2.232-.514-.323-1.205-.455-2.1-.455zm-1.526-9.575h1.865v-7.84h-1.865v7.84zm-.03-9.118h1.907v-1.806h-1.908v1.806zm5.064 4.493c.163-1.233.794-2.071 2.013-2.071 1.13 0 1.821.779 1.894 2.07h-3.907zm-.028 1.174h5.859c.014-1.452-.353-2.687-1.116-3.495-.661-.703-1.558-1.1-2.702-1.1-2.32 0-3.89 1.805-3.89 4.14 0 2.32 1.497 4.142 3.993 4.142 1.923 0 3.187-1.043 3.568-2.453h-1.822c-.249.646-.835 1.029-1.732 1.029-1.306 0-2.025-.91-2.158-2.263zm5.992 14.86h.058V82.03c-.132-.058-.28-.073-.5-.073-.999 0-1.746.514-2.246 1.527h-.044v-1.41h-1.806v7.841h1.864V85.98c0-1.512.925-2.35 2.16-2.335.19 0 .336.015.514.059zm5.712-17.62h.058v-1.674c-.133-.058-.28-.073-.5-.073-.999 0-1.747.514-2.246 1.526h-.044v-1.409h-1.806v7.841h1.864v-3.935c0-1.512.925-2.35 2.16-2.335.19 0 .337.015.514.059zm-3.671 19.926c0-1.586.705-2.716 2.07-2.716.94 0 1.528.544 1.703 1.394h1.821c-.28-1.688-1.543-2.818-3.54-2.818-2.407 0-3.948 1.805-3.948 4.14 0 2.32 1.555 4.142 3.979 4.142 2.1 0 3.435-1.263 3.553-3.084h-1.82c-.103 1.027-.72 1.63-1.748 1.63-1.365 0-2.07-1.145-2.07-2.688zm13.861 3.906V84.6c0-1.688-1.013-2.731-2.702-2.731-1.101 0-1.894.5-2.423 1.336h-.044c.015-.456.03-1.058.03-1.278V78.99h-1.866v10.925h1.866V85.32c0-1.116.733-1.91 1.776-1.91.955 0 1.498.573 1.498 1.499v5.006h1.865z"/>
    </g>
</svg>
