<?xml version="1.0" encoding="utf-8"?>
<!-- Generator: Adobe Illustrator 16.0.0, SVG Export Plug-In . SVG Version: 6.00 Build 0)  -->
<!DOCTYPE svg PUBLIC "-//W3C//DTD SVG 1.1//EN" "http://www.w3.org/Graphics/SVG/1.1/DTD/svg11.dtd">
<svg version="1.1" id="Layer_1" xmlns="http://www.w3.org/2000/svg" xmlns:xlink="http://www.w3.org/1999/xlink" x="0px" y="0px"
	 width="95px" height="95px" viewBox="0 0 95 95" enable-background="new 0 0 95 95" xml:space="preserve">
<g>
	<path fill="#568E3F" d="M10.167,74.434C4.683,66.854,1.437,57.551,1.437,47.5c0-25.399,20.664-46.063,46.063-46.063
		c10.05,0,19.351,3.245,26.933,8.73L75.301,9.3C67.49,3.601,57.885,0.227,47.5,0.227C21.433,0.227,0.227,21.434,0.227,47.5
		c0,10.386,3.374,19.992,9.072,27.8L10.167,74.434z M84.832,20.567c5.484,7.58,8.73,16.883,8.73,26.934
		c0,25.4-20.664,46.062-46.062,46.062c-10.051,0-19.354-3.244-26.936-8.73l-0.867,0.869c7.809,5.697,17.418,9.072,27.803,9.072
		c26.066,0,47.273-21.207,47.273-47.273c0-10.385-3.375-19.992-9.074-27.801L84.832,20.567L84.832,20.567z"/>
	<path fill="#568E3F" d="M45.118,56.73c0.158-1.195,0.771-2.006,1.951-2.006c1.095,0,1.765,0.754,1.835,2.006H45.118z M43.295,57.43
		c0,2.25,1.453,4.014,3.873,4.014c1.865,0,3.087-1.01,3.458-2.377h-1.766c-0.242,0.625-0.809,0.996-1.679,0.996
		c-1.266,0-1.964-0.883-2.092-2.193h5.679c0.014-1.408-0.342-2.604-1.082-3.387c-0.641-0.682-1.51-1.068-2.619-1.068
		C44.819,53.414,43.295,55.164,43.295,57.43z M37.304,58.881h-1.737c0.114,1.537,1.367,2.576,3.531,2.576
		c1.88,0,3.245-0.84,3.245-2.434c0-1.852-1.423-2.193-2.862-2.463c-1.152-0.213-1.936-0.342-1.936-1.01
		c0-0.527,0.441-0.91,1.281-0.91c0.897,0,1.381,0.354,1.51,1.01h1.723c-0.186-1.324-1.197-2.236-3.219-2.236
		c-1.779,0-3.002,0.826-3.002,2.266c0,1.721,1.352,2.047,2.775,2.332c1.196,0.229,1.965,0.371,1.965,1.127
		c0,0.609-0.47,1.037-1.467,1.037C38.144,60.176,37.446,59.791,37.304,58.881z M22.458,52.232c1.267,0,1.821,0.598,1.821,1.65
		c0,0.982-0.653,1.609-1.893,1.609h-2.562v-3.26H22.458z M22.855,50.625H17.86v10.59h1.965v-4.213h2.262
		c1.269,0,1.851,0.539,1.966,1.793c0.112,1.426,0.112,2.248,0.385,2.422h1.992v-0.102c-0.285-0.143-0.3-1.01-0.47-2.561
		c-0.114-1.311-0.526-1.951-1.65-2.293v-0.043c1.38-0.439,1.947-1.354,1.947-2.619C26.256,51.75,24.834,50.625,22.855,50.625
		L22.855,50.625z M19.825,35.238h5.551v-1.694H17.86v10.591h1.965v-4.54h4.625v-1.639h-4.625V35.238z M30.657,38.113h0.057v-1.622
		c-0.129-0.058-0.271-0.07-0.483-0.07c-0.969,0-1.694,0.496-2.178,1.478h-0.043v-1.364h-1.753v7.601h1.81v-3.815
		c0-1.466,0.896-2.277,2.093-2.263C30.343,38.056,30.486,38.07,30.657,38.113z M32.918,56.73h-3.784
		c0.155-1.195,0.768-2.006,1.95-2.006C32.179,54.725,32.849,55.479,32.918,56.73z M33.702,54.482
		c-0.64-0.682-1.508-1.068-2.619-1.068c-2.248,0-3.771,1.75-3.771,4.016c0,2.25,1.45,4.014,3.871,4.014
		c1.864,0,3.09-1.01,3.46-2.377h-1.766c-0.241,0.625-0.812,0.996-1.68,0.996c-1.267,0-1.965-0.883-2.093-2.193h5.681
		C34.8,56.461,34.442,55.266,33.702,54.482L33.702,54.482z M37.206,40.347c0,1.524-0.713,2.647-2.037,2.647
		c-1.338,0-2.034-1.123-2.034-2.647c0-1.537,0.696-2.677,2.034-2.677C36.493,37.67,37.206,38.811,37.206,40.347z M39.04,40.347
		c0-2.263-1.494-4.013-3.856-4.013c-2.363,0-3.886,1.75-3.886,4.013c0,2.25,1.522,4.015,3.886,4.015
		C37.545,44.362,39.04,42.597,39.04,40.347z M45.29,44.134h1.808V38.98c0-1.636-0.981-2.646-2.62-2.646
		c-1.066,0-1.863,0.468-2.361,1.308h-0.043v-1.11h-1.765v7.603h1.808v-4.455c0-1.082,0.711-1.851,1.721-1.851
		c0.926,0,1.453,0.553,1.453,1.453V44.134L45.29,44.134z M51.039,37.771h1.523v-1.237h-1.523v-2.421H49.26v2.421h-1.166v1.237h1.168
		v4.654c0,1.339,0.84,1.78,2.063,1.78c0.484,0,0.898-0.058,1.197-0.114v-1.41h-0.086c-0.143,0.03-0.4,0.06-0.584,0.06
		c-0.514,0-0.813-0.16-0.813-0.714V37.771z M56.734,57.328v1.125c0,0.855-0.684,1.709-1.922,1.709c-0.697,0-1.311-0.242-1.311-1.055
		c0-0.84,0.641-1.066,1.75-1.279C55.809,57.713,56.377,57.559,56.734,57.328L56.734,57.328z M55.311,53.414
		c-2.164,0-3.189,1.184-3.246,2.479h1.709c0.041-0.756,0.541-1.227,1.551-1.227c0.91,0,1.367,0.443,1.367,1.098
		c0,0.682-0.627,0.883-1.879,1.041c-1.809,0.211-3.119,0.625-3.119,2.346c0,1.48,1.113,2.25,2.592,2.25
		c1.209,0,1.893-0.498,2.391-1.168h0.029c0.029,0.512,0.129,0.811,0.256,0.982h1.752v-0.129c-0.172-0.113-0.285-0.441-0.285-1.066
		v-4c0-1.01-0.369-1.736-1.082-2.164c-0.498-0.313-1.168-0.439-2.035-0.439V53.414z M53.83,44.134h1.809v-7.601H53.83V44.134z
		 M53.801,35.293h1.85v-1.75h-1.85V35.293z M58.711,39.65c0.158-1.196,0.77-2.008,1.951-2.008c1.096,0,1.766,0.756,1.836,2.008
		H58.711L58.711,39.65z M58.684,40.79h5.68c0.014-1.41-0.342-2.606-1.082-3.39c-0.641-0.682-1.51-1.065-2.619-1.065
		c-2.25,0-3.77,1.75-3.77,4.013c0,2.25,1.449,4.015,3.869,4.015c1.865,0,3.09-1.011,3.459-2.378h-1.766
		c-0.242,0.627-0.811,0.998-1.68,0.998C59.51,42.982,58.813,42.099,58.684,40.79L58.684,40.79z M64.492,55.193h0.057V53.57
		c-0.129-0.055-0.271-0.07-0.484-0.07c-0.969,0-1.693,0.498-2.178,1.48h-0.043v-1.367h-1.75v7.602H61.9V57.4
		c0-1.467,0.896-2.277,2.094-2.264C64.178,55.137,64.32,55.15,64.492,55.193L64.492,55.193z M70.029,38.113h0.057v-1.622
		c-0.129-0.058-0.271-0.07-0.484-0.07c-0.969,0-1.693,0.496-2.178,1.478h-0.043v-1.364h-1.75v7.601h1.807v-3.815
		c0-1.466,0.896-2.277,2.094-2.263C69.715,38.056,69.857,38.07,70.029,38.113z M66.471,57.43c0-1.537,0.684-2.635,2.008-2.635
		c0.91,0,1.479,0.527,1.648,1.352h1.768c-0.271-1.635-1.496-2.732-3.432-2.732c-2.334,0-3.828,1.75-3.828,4.016
		c0,2.25,1.508,4.014,3.857,4.014c2.035,0,3.33-1.223,3.445-2.99H70.17c-0.098,0.996-0.695,1.58-1.691,1.58
		C67.154,60.033,66.471,58.924,66.471,57.43L66.471,57.43z M79.908,61.215v-5.152c0-1.637-0.982-2.648-2.621-2.648
		c-1.066,0-1.834,0.484-2.348,1.295h-0.043c0.016-0.441,0.029-1.023,0.029-1.236v-2.848h-1.809v10.59h1.809v-4.453
		c0-1.082,0.711-1.854,1.723-1.854c0.926,0,1.451,0.557,1.451,1.453v4.854H79.908z"/>
</g>
</svg>
