<?xml version="1.0" encoding="utf-8"?>
<!-- Generator: Adobe Illustrator 22.1.0, SVG Export Plug-In . SVG Version: 6.00 Build 0)  -->
<svg version="1.1" id="Layer_1" xmlns="http://www.w3.org/2000/svg" xmlns:xlink="http://www.w3.org/1999/xlink" x="0px" y="0px"
	 viewBox="0 0 45 46" style="enable-background:new 0 0 45 46;" xml:space="preserve">
<style type="text/css">
	.st0{display:none;fill:none;stroke:#DDDFD1;}
	.st1{fill:#011700;}
</style>
<path class="st0" d="M1.1,0.5v45h43.3v-45H1.1z"/>
<path class="st1" d="M22.1,24.5c-0.2,0-0.3-0.1-0.6-0.2l-8-6.7l1.1-1.1l7.5,6.2l7.6-6.6l1.1,1.1l-8.4,6.9
	C22.5,24.4,22.4,24.5,22.1,24.5z"/>
<path class="st1" d="M30.4,15.1H14c-0.6,0-0.9,0.5-0.9,1v12.6c0,0.6,0.3,1,0.9,1h16.4c0.6,0,0.9-0.5,0.9-1V16.1
	C31.3,15.5,30.9,15.1,30.4,15.1z M29.5,27.9H14.9v-11h14.6L29.5,27.9L29.5,27.9z"/>
</svg>
