<svg xmlns="http://www.w3.org/2000/svg" width="45" height="46" viewBox="0 0 45 46">
    <g fill="none" fill-rule="nonzero">
        <path stroke="#DDDFD1" d="M1.075.5v45h43.343V.5H1.075z"/>
        <path fill="#FFF" d="M22.333 24c-.222 0-.333-.11-.555-.22L14 17.426l1.111-1.096 7.333 5.918L29.89 16 31 17.096l-8.222 6.575c0 .22-.111.329-.445.329z"/>
        <path fill="#FFF" d="M30.1 15H13.9c-.562 0-.9.438-.9.984v12.032c0 .547.338.984.9.984h16.2c.563 0 .9-.438.9-.984V15.984c0-.546-.337-.984-.9-.984zm-.9 12.25H14.8v-10.5h14.4v10.5z"/>
    </g>
</svg>
