<?xml version="1.0" encoding="utf-8"?>
<!-- Generator: Adobe Illustrator 16.0.0, SVG Export Plug-In . SVG Version: 6.00 Build 0)  -->
<!DOCTYPE svg PUBLIC "-//W3C//DTD SVG 1.1//EN" "http://www.w3.org/Graphics/SVG/1.1/DTD/svg11.dtd">
<svg version="1.1" id="Layer_1" xmlns="http://www.w3.org/2000/svg" xmlns:xlink="http://www.w3.org/1999/xlink" x="0px" y="0px"
	 width="98px" height="98px" viewBox="0 0 98 98" enable-background="new 0 0 98 98" xml:space="preserve">
<g>
	<path fill="#FFFFFF" d="M10.254,76.55C4.597,68.73,1.249,59.135,1.249,48.767c0-26.201,21.316-47.518,47.517-47.518
		c10.368,0,19.962,3.348,27.784,9.005l0.896-0.895C69.389,3.481,59.479,0,48.765,0C21.877,0,0,21.878,0,48.768
		C0,59.48,3.48,69.391,9.358,77.447L10.254,76.55L10.254,76.55z M87.277,20.982c5.658,7.82,9.006,17.417,9.006,27.785
		c0,26.201-21.317,47.517-47.518,47.517c-10.368,0-19.964-3.349-27.784-9.007l-0.895,0.896c8.055,5.878,17.966,9.359,28.68,9.359
		c26.888,0,48.766-21.876,48.766-48.765c0-10.713-3.48-20.624-9.36-28.68L87.277,20.982z"/>
	<path fill="#FFFFFF" d="M46.309,58.289c0.162-1.234,0.794-2.07,2.012-2.07c1.13,0,1.822,0.778,1.894,2.07H46.309z M44.429,59.009
		c0,2.32,1.499,4.14,3.995,4.14c1.924,0,3.186-1.041,3.568-2.451h-1.821c-0.25,0.646-0.837,1.027-1.732,1.027
		c-1.307,0-2.028-0.91-2.158-2.262h5.857c0.014-1.453-0.353-2.688-1.115-3.493c-0.66-0.704-1.558-1.102-2.703-1.102
		C46.001,54.868,44.429,56.673,44.429,59.009L44.429,59.009z M38.248,60.507h-1.792c0.117,1.585,1.41,2.657,3.643,2.657
		c1.938,0,3.347-0.866,3.347-2.51c0-1.91-1.468-2.264-2.952-2.54c-1.189-0.222-1.996-0.354-1.996-1.044
		c0-0.545,0.455-0.94,1.321-0.94c0.925,0,1.425,0.368,1.557,1.043h1.777c-0.191-1.364-1.234-2.305-3.32-2.305
		c-1.835,0-3.098,0.852-3.098,2.335c0,1.775,1.396,2.113,2.864,2.406c1.234,0.236,2.027,0.384,2.027,1.16
		c0,0.633-0.486,1.072-1.513,1.072C39.114,61.842,38.394,61.445,38.248,60.507z M22.932,53.648c1.307,0,1.88,0.617,1.88,1.703
		c0,1.014-0.676,1.659-1.953,1.659h-2.643v-3.362H22.932z M23.342,51.989H18.19v10.925h2.027v-4.346h2.335
		c1.307,0,1.908,0.557,2.027,1.85c0.116,1.471,0.116,2.32,0.396,2.496h2.056v-0.102c-0.294-0.148-0.309-1.043-0.486-2.645
		c-0.117-1.352-0.542-2.01-1.702-2.363v-0.044c1.424-0.456,2.01-1.396,2.01-2.702C26.853,53.148,25.386,51.989,23.342,51.989
		L23.342,51.989z M20.216,36.116h5.727v-1.748H18.19v10.925h2.027V40.61h4.772v-1.688h-4.772L20.216,36.116L20.216,36.116z
		 M31.39,39.082h0.06v-1.674c-0.133-0.058-0.28-0.073-0.5-0.073c-0.999,0-1.747,0.514-2.246,1.526H28.66v-1.409h-1.808v7.841h1.866
		v-3.935c0-1.512,0.925-2.35,2.158-2.335C31.068,39.023,31.214,39.038,31.39,39.082z M33.725,58.289H29.82
		c0.161-1.234,0.792-2.07,2.01-2.07C32.961,56.219,33.652,56.997,33.725,58.289z M34.532,55.969
		c-0.66-0.703-1.555-1.101-2.702-1.101c-2.319,0-3.89,1.805-3.89,4.14c0,2.32,1.497,4.143,3.994,4.143
		c1.924,0,3.186-1.043,3.568-2.453h-1.82c-0.25,0.646-0.838,1.027-1.732,1.027c-1.308,0-2.028-0.91-2.16-2.262h5.859
		C35.664,58.01,35.296,56.775,34.532,55.969L34.532,55.969z M38.145,41.387c0,1.572-0.734,2.732-2.1,2.732
		c-1.38,0-2.1-1.16-2.1-2.732c0-1.585,0.72-2.76,2.1-2.76C37.411,38.627,38.145,39.802,38.145,41.387z M40.039,41.387
		c0-2.335-1.541-4.14-3.98-4.14c-2.437,0-4.008,1.805-4.008,4.14c0,2.32,1.571,4.142,4.009,4.142S40.039,43.708,40.039,41.387z
		 M46.486,45.293h1.864v-5.316c0-1.688-1.012-2.73-2.702-2.73c-1.1,0-1.923,0.483-2.438,1.35h-0.042v-1.145h-1.822v7.841h1.864
		v-4.595c0-1.116,0.735-1.91,1.777-1.91c0.955,0,1.499,0.572,1.499,1.499V45.293L46.486,45.293z M52.418,38.729h1.57v-1.277h-1.57
		v-2.496h-1.836v2.496h-1.203v1.277h1.203v4.802c0,1.38,0.865,1.836,2.13,1.836c0.499,0,0.925-0.059,1.233-0.118v-1.454h-0.088
		c-0.146,0.03-0.412,0.06-0.603,0.06c-0.53,0-0.837-0.163-0.837-0.735V38.729L52.418,38.729z M58.292,58.905v1.159
		c0,0.883-0.705,1.765-1.983,1.765c-0.718,0-1.351-0.25-1.351-1.088c0-0.867,0.66-1.101,1.808-1.322
		C57.337,59.302,57.923,59.141,58.292,58.905z M56.822,54.868c-2.231,0-3.289,1.219-3.348,2.554h1.764
		c0.043-0.777,0.558-1.263,1.6-1.263c0.939,0,1.41,0.456,1.41,1.132c0,0.704-0.646,0.91-1.939,1.072
		c-1.865,0.22-3.216,0.645-3.216,2.422c0,1.527,1.146,2.32,2.673,2.32c1.248,0,1.952-0.514,2.467-1.205h0.029
		c0.03,0.529,0.133,0.836,0.264,1.014h1.808v-0.132c-0.177-0.118-0.294-0.456-0.294-1.101v-4.127c0-1.043-0.382-1.791-1.116-2.231
		C58.409,55,57.718,54.868,56.822,54.868z M55.297,45.293h1.865v-7.84h-1.865V45.293L55.297,45.293z M55.268,36.175h1.906v-1.806
		h-1.908v1.806H55.268z M60.331,40.668c0.163-1.233,0.794-2.071,2.013-2.071c1.131,0,1.821,0.779,1.895,2.07L60.331,40.668
		L60.331,40.668z M60.303,41.842h5.859c0.014-1.452-0.354-2.687-1.116-3.495c-0.661-0.703-1.558-1.1-2.702-1.1
		c-2.32,0-3.89,1.805-3.89,4.14c0,2.32,1.497,4.142,3.993,4.142c1.923,0,3.187-1.043,3.568-2.453h-1.822
		c-0.25,0.646-0.836,1.029-1.732,1.029C61.154,44.105,60.436,43.195,60.303,41.842L60.303,41.842z M66.295,56.702h0.059V55.03
		c-0.133-0.058-0.281-0.073-0.5-0.073c-1,0-1.746,0.514-2.246,1.527h-0.045v-1.41h-1.806v7.841h1.864V58.98
		c0-1.513,0.925-2.351,2.16-2.336c0.189,0,0.336,0.016,0.514,0.06V56.702z M72.007,39.082h0.058v-1.674
		c-0.133-0.058-0.279-0.073-0.5-0.073c-0.998,0-1.746,0.514-2.246,1.526h-0.043v-1.409h-1.807v7.841h1.864v-3.935
		c0-1.512,0.925-2.35,2.16-2.335C71.684,39.023,71.83,39.038,72.007,39.082z M68.336,59.008c0-1.586,0.705-2.716,2.07-2.716
		c0.939,0,1.527,0.544,1.703,1.394h1.82c-0.279-1.688-1.543-2.817-3.539-2.817c-2.408,0-3.949,1.805-3.949,4.14
		c0,2.32,1.556,4.143,3.979,4.143c2.101,0,3.435-1.264,3.554-3.084h-1.82c-0.104,1.026-0.721,1.629-1.748,1.629
		C69.041,61.695,68.336,60.551,68.336,59.008z M82.197,62.914V57.6c0-1.688-1.014-2.73-2.702-2.73c-1.101,0-1.894,0.5-2.423,1.336
		h-0.045c0.016-0.456,0.031-1.059,0.031-1.278V51.99h-1.867v10.925h1.867V58.32c0-1.116,0.732-1.91,1.775-1.91
		c0.955,0,1.498,0.572,1.498,1.499v5.006L82.197,62.914L82.197,62.914z"/>
</g>
</svg>
