<?xml version="1.0" encoding="utf-8"?>
<!-- Generator: Adobe Illustrator 22.1.0, SVG Export Plug-In . SVG Version: 6.00 Build 0)  -->
<svg version="1.1" id="Layer_1" xmlns="http://www.w3.org/2000/svg" xmlns:xlink="http://www.w3.org/1999/xlink" x="0px" y="0px"
	 viewBox="0 0 45 46" style="enable-background:new 0 0 45 46;" xml:space="preserve">
<style type="text/css">
	.st0{display:none;fill:none;stroke:#DDDFD1;}
	.st1{fill:#011700;}
</style>
<g>
	<path class="st0" d="M0.5,0.5h43.3v45H0.5V0.5z"/>
	<g>
		<path class="st1" d="M25.9,25.7l2,2c0.4,0.4,0.6,0.8,0.6,1.2c0,0.4-0.2,0.9-0.5,1.2c-0.2,0.2-0.3,0.3-0.5,0.5
			c-0.2,0.2-0.4,0.4-0.6,0.7c0,0,0,0,0,0c-0.5,0.6-1.2,0.9-2.1,0.9c-0.1,0-0.1,0-0.2,0c-1.2-0.1-2.3-0.5-3.2-0.9
			c-2.2-1.1-4.1-2.6-5.6-4.4c-1.3-1.6-2.2-3-2.7-4.6c-0.2-0.6-0.5-1.6-0.5-2.7c0-0.6,0.3-1.2,0.8-1.7l1.2-1.2l0,0
			c0.4-0.3,0.8-0.5,1.2-0.5c0.4,0,0.9,0.2,1.2,0.5c0.2,0.2,0.5,0.4,0.7,0.7c0.1,0.1,0.2,0.2,0.3,0.3l1,1c0.8,0.8,0.8,1.7,0,2.5
			c-0.1,0.1-0.2,0.2-0.3,0.3c-0.3,0.3-0.5,0.6-0.8,0.8c0.2,0.5,0.5,1,1,1.5c0.9,1.1,1.9,2,2.9,2.7c0.1,0.1,0.2,0.1,0.4,0.2
			c0.1,0,0.2,0.1,0.3,0.1l1.1-1.1c0.4-0.4,0.8-0.6,1.2-0.6C25.1,25.1,25.6,25.3,25.9,25.7L25.9,25.7z M22,19.5c1,0.2,2,0.7,2.7,1.4
			c0.8,0.8,1.2,1.7,1.4,2.8c0,0.3,0.3,0.5,0.5,0.5c0,0,0.1,0,0.1,0c0.3-0.1,0.5-0.3,0.4-0.6c-0.2-1.3-0.8-2.4-1.7-3.4
			c-0.9-0.9-2.1-1.5-3.3-1.7c-0.3,0-0.6,0.1-0.6,0.4C21.6,19.1,21.8,19.4,22,19.5z M29.6,22.4c-0.3-1.9-1.2-3.6-2.5-4.9
			c-1.3-1.3-3-2.2-4.9-2.6c-0.3,0-0.5,0.1-0.5,0.4c0,0,0,0,0,0c0,0.3,0.1,0.5,0.4,0.6c1.7,0.3,3.2,1.1,4.4,2.3
			c1.2,1.2,2,2.7,2.3,4.4c0,0.2,0.2,0.4,0.5,0.4C29.3,23,29.6,22.8,29.6,22.4C29.6,22.5,29.6,22.5,29.6,22.4z"/>
	</g>
</g>
</svg>
