<svg xmlns="http://www.w3.org/2000/svg" width="45" height="46" viewBox="0 0 45 46">
    <g fill="none" fill-rule="nonzero">
        <path fill="#FFF" d="M26.4 25.747l1.966 1.988c.362.36.552.79.552 1.237 0 .443-.186.876-.54 1.247a14.11 14.11 0 0 1-.467.466c-.225.22-.44.425-.627.653-.003.007-.01.01-.014.018-.544.595-1.24.894-2.067.894-.071 0-.15-.004-.225-.007-1.229-.08-2.328-.545-3.152-.938a16.875 16.875 0 0 1-5.613-4.425c-1.293-1.566-2.16-3.026-2.74-4.602-.236-.642-.544-1.623-.458-2.676a2.647 2.647 0 0 1 .777-1.678l1.218-1.237.007-.007c.358-.346.78-.53 1.218-.53.437 0 .852.184 1.2.53.232.217.458.447.673.671.108.115.222.23.333.343l.978.984c.752.758.752 1.739 0 2.496l-.3.307c-.266.27-.538.551-.832.822.219.487.52.966.967 1.536.924 1.144 1.888 2.027 2.948 2.705.104.065.226.127.355.192.09.046.182.093.275.144l1.132-1.136c.362-.365.785-.556 1.225-.556.444 0 .863.195 1.21.56z"/>
        <path stroke="#DDDFD1" d="M.5.5h43.342v45H.5z"/>
        <path fill="#FFF" d="M22.538 19.528a5.03 5.03 0 0 1 2.747 1.442 5.152 5.152 0 0 1 1.426 2.779c.044.266.27.451.53.451.031 0 .059-.004.09-.008a.543.543 0 0 0 .443-.628A6.234 6.234 0 0 0 26.05 20.2a6.116 6.116 0 0 0-3.325-1.744.54.54 0 0 0-.62.443c-.052.294.139.58.433.628zM30.048 22.49a9.133 9.133 0 0 0-2.526-4.927 8.955 8.955 0 0 0-4.87-2.556.477.477 0 0 0-.55.395.486.486 0 0 0 .393.559 8.017 8.017 0 0 1 4.354 2.283 8.151 8.151 0 0 1 2.256 4.405.477.477 0 0 0 .471.401.474.474 0 0 0 .471-.56z"/>
    </g>
</svg>
